ffmpeg started on 2025-06-05 at 19:07:19
Report written to "D:\Convert\FFMetrics\reports\psnr_report-6.txt"
Log level: 32
Command line:
ffmpeg -hide_banner -nostdin -i "G:\\\xc0\xed\xe8\xec\xe5\\\xce\xed\xe3\xee\xe8\xed\xe3\xe8\\!_36_\xce\xf1\xe5\xed\xfc_2024\\DreamCast\\\xca\xee\xec\xef\xe0\xed\xe8\xff \xab\xcc\xe0\xe3\xe8-\xcb\xfe\xec\xfc\xe5\xf0\xbb\\[DC] Kabushikigaisha Magilumiere - 05_Telegram_HEVC.mkv" -i "G:\\\xc0\xed\xe8\xec\xe5\\\xce\xed\xe3\xee\xe8\xed\xe3\xe8\\!_36_\xce\xf1\xe5\xed\xfc_2024\\DreamCast\\\xca\xee\xec\xef\xe0\xed\xe8\xff \xab\xcc\xe0\xe3\xe8-\xcb\xfe\xec\xfc\xe5\xf0\xbb\\[DC] Kabushikigaisha Magilumiere - 05_Telegram.mp4" -lavfi "[0:v]settb=AVTB,setpts=PTS-STARTPTS,format=pix_fmts=yuv420p10,fps=24000/1001,scale=1920:1080:flags=bicubic[main];[1:v]settb=AVTB,setpts=PTS-STARTPTS,format=pix_fmts=yuv420p,fps=24000/1001,scale=1920:1080:flags=bicubic[ref];[main][ref]psnr=eof_action=endall:stats_file='D\\:/Convert/FFMetrics/logs/psnr_logfile-6.txt'" -f null -
Input #0, matroska,webm, from 'G:\Аниме\Онгоинги\!_36_Осень_2024\DreamCast\Компания «Маги-Люмьер»\[DC] Kabushikigaisha Magilumiere - 05_Telegram_HEVC.mkv':
  Metadata:
    COMPATIBLE_BRANDS: isomiso2avc1mp41
    MAJOR_BRAND     : isom
    MINOR_VERSION   : 512
    ENCODER         : Lavf61.7.100
  Duration: 00:24:06.61, start: -0.021000, bitrate: 1283 kb/s
  Stream #0:0: Video: hevc (Main 10), yuv420p10le(tv, bt709, progressive), 1920x1080 [SAR 1:1 DAR 16:9], 23.98 fps, 23.98 tbr, 1k tbn (default)
      Metadata:
        HANDLER_NAME    : VideoHandler
        VENDOR_ID       : [0][0][0][0]
        ENCODER         : Lavc61.19.100 libx265
        BPS             : 1085428
        DURATION        : 00:24:06.486708333
        NUMBER_OF_FRAMES: 34681
        NUMBER_OF_BYTES : 196257064
        _STATISTICS_WRITING_APP: mkvpropedit v66.0.0 ('Josie') 64-bit
        _STATISTICS_WRITING_DATE_UTC: 2025-05-30 17:50:23
        _STATISTICS_TAGS: BPS DURATION NUMBER_OF_FRAMES NUMBER_OF_BYTES
  Stream #0:1: Audio: aac (LC), 48000 Hz, stereo, fltp (default)
      Metadata:
        HANDLER_NAME    : SoundHandler
        VENDOR_ID       : [0][0][0][0]
        ENCODER         : Lavc61.19.100 aac
        BPS             : 194200
        DURATION        : 00:24:06.613000000
        NUMBER_OF_FRAMES: 67811
        NUMBER_OF_BYTES : 35116662
        _STATISTICS_WRITING_APP: mkvpropedit v66.0.0 ('Josie') 64-bit
        _STATISTICS_WRITING_DATE_UTC: 2025-05-30 17:50:23
        _STATISTICS_TAGS: BPS DURATION NUMBER_OF_FRAMES NUMBER_OF_BYTES
Input #1, mov,mp4,m4a,3gp,3g2,mj2, from 'G:\Аниме\Онгоинги\!_36_Осень_2024\DreamCast\Компания «Маги-Люмьер»\[DC] Kabushikigaisha Magilumiere - 05_Telegram.mp4':
  Metadata:
    major_brand     : isom
    minor_version   : 512
    compatible_brands: isomiso2avc1mp41
    encoder         : Lavf61.1.100
  Duration: 00:24:06.55, start: 0.000000, bitrate: 3536 kb/s
  Stream #1:0[0x1](und): Video: h264 (High) (avc1 / 0x31637661), yuv420p(tv, bt709, progressive), 1920x1080 [SAR 1:1 DAR 16:9], 3388 kb/s, 23.98 fps, 23.98 tbr, 24k tbn (default)
      Metadata:
        handler_name    : VideoHandler
        vendor_id       : [0][0][0][0]
        encoder         : Lavc61.3.100 h264_qsv
  Stream #1:1[0x2](und): Audio: aac (HE-AACv2) (mp4a / 0x6134706D), 48000 Hz, stereo, fltp, 144 kb/s (default)
      Metadata:
        handler_name    : SoundHandler
        vendor_id       : [0][0][0][0]
Stream mapping:
  Stream #0:0 (hevc) -> settb:default
  Stream #1:0 (h264) -> settb:default
  psnr:default -> Stream #0:0 (wrapped_avframe)
  Stream #0:1 -> #0:1 (aac (native) -> pcm_s16le (native))
Output #0, null, to 'pipe:':
  Metadata:
    COMPATIBLE_BRANDS: isomiso2avc1mp41
    MAJOR_BRAND     : isom
    MINOR_VERSION   : 512
    encoder         : Lavf61.7.100
  Stream #0:0: Video: wrapped_avframe, yuv420p10le(tv, bt709, progressive), 1920x1080 [SAR 1:1 DAR 16:9], q=2-31, 200 kb/s, 23.98 fps, 23.98 tbn
      Metadata:
        encoder         : Lavc61.19.100 wrapped_avframe
  Stream #0:1: Audio: pcm_s16le, 48000 Hz, stereo, s16, 1536 kb/s (default)
      Metadata:
        HANDLER_NAME    : SoundHandler
        VENDOR_ID       : [0][0][0][0]
        _STATISTICS_TAGS: BPS DURATION NUMBER_OF_FRAMES NUMBER_OF_BYTES
        BPS             : 194200
        DURATION        : 00:24:06.613000000
        NUMBER_OF_FRAMES: 67811
        NUMBER_OF_BYTES : 35116662
        _STATISTICS_WRITING_APP: mkvpropedit v66.0.0 ('Josie') 64-bit
        _STATISTICS_WRITING_DATE_UTC: 2025-05-30 17:50:23
        encoder         : Lavc61.19.100 pcm_s16le
frame=  181 fps=0.0 q=-0.0 size=N/A time=00:00:07.54 bitrate=N/A speed=14.6x    frame=  394 fps=384 q=-0.0 size=N/A time=00:00:16.43 bitrate=N/A speed=  16x    frame=  586 fps=379 q=-0.0 size=N/A time=00:00:24.44 bitrate=N/A speed=15.8x    frame=  775 fps=374 q=-0.0 size=N/A time=00:00:32.32 bitrate=N/A speed=15.6x    frame=  979 fps=381 q=-0.0 size=N/A time=00:00:40.83 bitrate=N/A speed=15.9x    frame= 1158 fps=374 q=-0.0 size=N/A time=00:00:48.29 bitrate=N/A speed=15.6x    frame= 1338 fps=370 q=-0.0 size=N/A time=00:00:55.80 bitrate=N/A speed=15.4x    frame= 1471 fps=357 q=-0.0 size=N/A time=00:01:01.35 bitrate=N/A speed=14.9x    frame= 1653 fps=357 q=-0.0 size=N/A time=00:01:08.94 bitrate=N/A speed=14.9x    frame= 1865 fps=361 q=-0.0 size=N/A time=00:01:17.78 bitrate=N/A speed=15.1x    frame= 2066 fps=365 q=-0.0 size=N/A time=00:01:26.16 bitrate=N/A speed=15.2x    frame= 2282 fps=369 q=-0.0 size=N/A time=00:01:35.17 bitrate=N/A speed=15.4x    frame= 2444 fps=364 q=-0.0 size=N/A time=00:01:41.93 bitrate=N/A speed=15.2x    frame= 2583 fps=357 q=-0.0 size=N/A time=00:01:47.73 bitrate=N/A speed=14.9x    frame= 2757 fps=356 q=-0.0 size=N/A time=00:01:54.98 bitrate=N/A speed=14.8x    frame= 2965 fps=358 q=-0.0 size=N/A time=00:02:03.66 bitrate=N/A speed=14.9x    frame= 3162 fps=360 q=-0.0 size=N/A time=00:02:11.88 bitrate=N/A speed=  15x    frame= 3418 fps=368 q=-0.0 size=N/A time=00:02:22.55 bitrate=N/A speed=15.3x    frame= 3650 fps=372 q=-0.0 size=N/A time=00:02:32.23 bitrate=N/A speed=15.5x    frame= 3853 fps=373 q=-0.0 size=N/A time=00:02:40.70 bitrate=N/A speed=15.6x    frame= 4116 fps=380 q=-0.0 size=N/A time=00:02:51.67 bitrate=N/A speed=15.8x    frame= 4383 fps=386 q=-0.0 size=N/A time=00:03:02.80 bitrate=N/A speed=16.1x    frame= 4656 fps=392 q=-0.0 size=N/A time=00:03:14.19 bitrate=N/A speed=16.3x    frame= 4906 fps=396 q=-0.0 size=N/A time=00:03:24.62 bitrate=N/A speed=16.5x    frame= 5176 fps=401 q=-0.0 size=N/A time=00:03:35.88 bitrate=N/A speed=16.7x    frame= 5405 fps=402 q=-0.0 size=N/A time=00:03:45.43 bitrate=N/A speed=16.8x    frame= 5647 fps=405 q=-0.0 size=N/A time=00:03:55.52 bitrate=N/A speed=16.9x    frame= 5864 fps=406 q=-0.0 size=N/A time=00:04:04.57 bitrate=N/A speed=16.9x    frame= 6091 fps=407 q=-0.0 size=N/A time=00:04:14.04 bitrate=N/A speed=  17x    frame= 6339 fps=409 q=-0.0 size=N/A time=00:04:24.38 bitrate=N/A speed=17.1x    frame= 6588 fps=412 q=-0.0 size=N/A time=00:04:34.77 bitrate=N/A speed=17.2x    frame= 6810 fps=412 q=-0.0 size=N/A time=00:04:44.03 bitrate=N/A speed=17.2x    frame= 7077 fps=415 q=-0.0 size=N/A time=00:04:55.16 bitrate=N/A speed=17.3x    frame= 7269 fps=414 q=-0.0 size=N/A time=00:05:03.17 bitrate=N/A speed=17.3x    frame= 7482 fps=414 q=-0.0 size=N/A time=00:05:12.06 bitrate=N/A speed=17.3x    frame= 7724 fps=416 q=-0.0 size=N/A time=00:05:22.15 bitrate=N/A speed=17.3x    frame= 7932 fps=415 q=-0.0 size=N/A time=00:05:30.83 bitrate=N/A speed=17.3x    frame= 8135 fps=415 q=-0.0 size=N/A time=00:05:39.29 bitrate=N/A speed=17.3x    frame= 8313 fps=413 q=-0.0 size=N/A time=00:05:46.72 bitrate=N/A speed=17.2x    frame= 8517 fps=413 q=-0.0 size=N/A time=00:05:55.22 bitrate=N/A speed=17.2x    frame= 8735 fps=413 q=-0.0 size=N/A time=00:06:04.32 bitrate=N/A speed=17.2x    frame= 8994 fps=415 q=-0.0 size=N/A time=00:06:15.12 bitrate=N/A speed=17.3x    frame= 9238 fps=416 q=-0.0 size=N/A time=00:06:25.30 bitrate=N/A speed=17.4x    frame= 9438 fps=416 q=-0.0 size=N/A time=00:06:33.64 bitrate=N/A speed=17.3x    frame= 9675 fps=417 q=-0.0 size=N/A time=00:06:43.52 bitrate=N/A speed=17.4x    frame= 9937 fps=418 q=-0.0 size=N/A time=00:06:54.45 bitrate=N/A speed=17.4x    frame=10190 fps=420 q=-0.0 size=N/A time=00:07:05.00 bitrate=N/A speed=17.5x    frame=10433 fps=421 q=-0.0 size=N/A time=00:07:15.14 bitrate=N/A speed=17.6x    frame=10665 fps=422 q=-0.0 size=N/A time=00:07:24.81 bitrate=N/A speed=17.6x    frame=10908 fps=422 q=-0.0 size=N/A time=00:07:34.95 bitrate=N/A speed=17.6x    frame=11114 fps=422 q=-0.0 size=N/A time=00:07:43.54 bitrate=N/A speed=17.6x    frame=11366 fps=423 q=-0.0 size=N/A time=00:07:54.05 bitrate=N/A speed=17.7x    frame=11570 fps=423 q=-0.0 size=N/A time=00:08:02.56 bitrate=N/A speed=17.6x    frame=11798 fps=423 q=-0.0 size=N/A time=00:08:12.07 bitrate=N/A speed=17.7x    frame=12035 fps=424 q=-0.0 size=N/A time=00:08:21.95 bitrate=N/A speed=17.7x    frame=12284 fps=425 q=-0.0 size=N/A time=00:08:32.34 bitrate=N/A speed=17.7x    frame=12525 fps=426 q=-0.0 size=N/A time=00:08:42.39 bitrate=N/A speed=17.8x    frame=12782 fps=427 q=-0.0 size=N/A time=00:08:53.11 bitrate=N/A speed=17.8x    frame=13027 fps=428 q=-0.0 size=N/A time=00:09:03.33 bitrate=N/A speed=17.8x    frame=13288 fps=429 q=-0.0 size=N/A time=00:09:14.22 bitrate=N/A speed=17.9x    frame=13523 fps=429 q=-0.0 size=N/A time=00:09:24.02 bitrate=N/A speed=17.9x    frame=13759 fps=430 q=-0.0 size=N/A time=00:09:33.86 bitrate=N/A speed=17.9x    frame=14007 fps=431 q=-0.0 size=N/A time=00:09:44.20 bitrate=N/A speed=  18x    frame=14243 fps=431 q=-0.0 size=N/A time=00:09:54.05 bitrate=N/A speed=  18x    frame=14487 fps=432 q=-0.0 size=N/A time=00:10:04.27 bitrate=N/A speed=  18x    frame=14726 fps=432 q=-0.0 size=N/A time=00:10:14.19 bitrate=N/A speed=  18x    frame=14945 fps=432 q=-0.0 size=N/A time=00:10:23.33 bitrate=N/A speed=  18x    frame=15171 fps=432 q=-0.0 size=N/A time=00:10:32.75 bitrate=N/A speed=  18x    frame=15436 fps=433 q=-0.0 size=N/A time=00:10:43.80 bitrate=N/A speed=18.1x    frame=15685 fps=434 q=-0.0 size=N/A time=00:10:54.19 bitrate=N/A speed=18.1x    frame=15955 fps=435 q=-0.0 size=N/A time=00:11:05.45 bitrate=N/A speed=18.1x    frame=16218 fps=436 q=-0.0 size=N/A time=00:11:16.42 bitrate=N/A speed=18.2x    frame=16470 fps=437 q=-0.0 size=N/A time=00:11:26.93 bitrate=N/A speed=18.2x    frame=16716 fps=437 q=-0.0 size=N/A time=00:11:37.19 bitrate=N/A speed=18.2x    frame=16972 fps=438 q=-0.0 size=N/A time=00:11:47.87 bitrate=N/A speed=18.3x    frame=17182 fps=438 q=-0.0 size=N/A time=00:11:56.63 bitrate=N/A speed=18.3x    frame=17377 fps=437 q=-0.0 size=N/A time=00:12:04.76 bitrate=N/A speed=18.2x    frame=17599 fps=437 q=-0.0 size=N/A time=00:12:14.02 bitrate=N/A speed=18.2x    frame=17818 fps=437 q=-0.0 size=N/A time=00:12:23.15 bitrate=N/A speed=18.2x    frame=18004 fps=436 q=-0.0 size=N/A time=00:12:30.91 bitrate=N/A speed=18.2x    frame=18202 fps=435 q=-0.0 size=N/A time=00:12:39.17 bitrate=N/A speed=18.2x    frame=18452 fps=436 q=-0.0 size=N/A time=00:12:49.60 bitrate=N/A speed=18.2x    frame=18698 fps=436 q=-0.0 size=N/A time=00:12:59.86 bitrate=N/A speed=18.2x    frame=18946 fps=437 q=-0.0 size=N/A time=00:13:10.20 bitrate=N/A speed=18.2x    frame=19177 fps=437 q=-0.0 size=N/A time=00:13:19.84 bitrate=N/A speed=18.2x    frame=19390 fps=437 q=-0.0 size=N/A time=00:13:28.72 bitrate=N/A speed=18.2x    frame=19593 fps=436 q=-0.0 size=N/A time=00:13:37.19 bitrate=N/A speed=18.2x    frame=19788 fps=435 q=-0.0 size=N/A time=00:13:45.32 bitrate=N/A speed=18.2x    frame=19977 fps=435 q=-0.0 size=N/A time=00:13:53.20 bitrate=N/A speed=18.1x    frame=20217 fps=435 q=-0.0 size=N/A time=00:14:03.21 bitrate=N/A speed=18.1x    frame=20456 fps=435 q=-0.0 size=N/A time=00:14:13.18 bitrate=N/A speed=18.2x    frame=20700 fps=436 q=-0.0 size=N/A time=00:14:23.36 bitrate=N/A speed=18.2x    frame=20933 fps=436 q=-0.0 size=N/A time=00:14:33.08 bitrate=N/A speed=18.2x    frame=21182 fps=436 q=-0.0 size=N/A time=00:14:43.46 bitrate=N/A speed=18.2x    frame=21419 fps=437 q=-0.0 size=N/A time=00:14:53.35 bitrate=N/A speed=18.2x    frame=21666 fps=437 q=-0.0 size=N/A time=00:15:03.65 bitrate=N/A speed=18.2x    frame=21902 fps=437 q=-0.0 size=N/A time=00:15:13.49 bitrate=N/A speed=18.2x    frame=22145 fps=438 q=-0.0 size=N/A time=00:15:23.63 bitrate=N/A speed=18.3x    frame=22393 fps=438 q=-0.0 size=N/A time=00:15:33.97 bitrate=N/A speed=18.3x    frame=22673 fps=439 q=-0.0 size=N/A time=00:15:45.65 bitrate=N/A speed=18.3x    frame=22933 fps=440 q=-0.0 size=N/A time=00:15:56.49 bitrate=N/A speed=18.3x    frame=23166 fps=440 q=-0.0 size=N/A time=00:16:06.21 bitrate=N/A speed=18.3x    frame=23426 fps=440 q=-0.0 size=N/A time=00:16:17.05 bitrate=N/A speed=18.4x    frame=23680 fps=441 q=-0.0 size=N/A time=00:16:27.65 bitrate=N/A speed=18.4x    frame=23958 fps=442 q=-0.0 size=N/A time=00:16:39.24 bitrate=N/A speed=18.4x    frame=24189 fps=442 q=-0.0 size=N/A time=00:16:48.88 bitrate=N/A speed=18.4x    frame=24460 fps=443 q=-0.0 size=N/A time=00:17:00.18 bitrate=N/A speed=18.5x    frame=24700 fps=443 q=-0.0 size=N/A time=00:17:10.19 bitrate=N/A speed=18.5x    frame=24944 fps=443 q=-0.0 size=N/A time=00:17:20.37 bitrate=N/A speed=18.5x    frame=25211 fps=444 q=-0.0 size=N/A time=00:17:31.50 bitrate=N/A speed=18.5x    frame=25406 fps=443 q=-0.0 size=N/A time=00:17:39.64 bitrate=N/A speed=18.5x    frame=25613 fps=443 q=-0.0 size=N/A time=00:17:48.27 bitrate=N/A speed=18.5x    frame=25890 fps=444 q=-0.0 size=N/A time=00:17:59.82 bitrate=N/A speed=18.5x    frame=26146 fps=444 q=-0.0 size=N/A time=00:18:10.50 bitrate=N/A speed=18.5x    frame=26390 fps=445 q=-0.0 size=N/A time=00:18:20.68 bitrate=N/A speed=18.5x    frame=26645 fps=445 q=-0.0 size=N/A time=00:18:31.31 bitrate=N/A speed=18.6x    frame=26898 fps=445 q=-0.0 size=N/A time=00:18:41.87 bitrate=N/A speed=18.6x    frame=27126 fps=445 q=-0.0 size=N/A time=00:18:51.38 bitrate=N/A speed=18.6x    frame=27339 fps=445 q=-0.0 size=N/A time=00:19:00.26 bitrate=N/A speed=18.6x    frame=27589 fps=445 q=-0.0 size=N/A time=00:19:10.69 bitrate=N/A speed=18.6x    frame=27832 fps=446 q=-0.0 size=N/A time=00:19:20.82 bitrate=N/A speed=18.6x    frame=28103 fps=446 q=-0.0 size=N/A time=00:19:32.17 bitrate=N/A speed=18.6x    frame=28368 fps=447 q=-0.0 size=N/A time=00:19:43.18 bitrate=N/A speed=18.6x    frame=28620 fps=447 q=-0.0 size=N/A time=00:19:53.69 bitrate=N/A speed=18.6x    frame=28876 fps=447 q=-0.0 size=N/A time=00:20:04.36 bitrate=N/A speed=18.7x    frame=29037 fps=446 q=-0.0 size=N/A time=00:20:11.08 bitrate=N/A speed=18.6x    frame=29259 fps=446 q=-0.0 size=N/A time=00:20:20.34 bitrate=N/A speed=18.6x    frame=29501 fps=446 q=-0.0 size=N/A time=00:20:30.43 bitrate=N/A speed=18.6x    frame=29743 fps=447 q=-0.0 size=N/A time=00:20:40.53 bitrate=N/A speed=18.6x    frame=29973 fps=447 q=-0.0 size=N/A time=00:20:50.12 bitrate=N/A speed=18.6x    frame=30213 fps=447 q=-0.0 size=N/A time=00:21:00.13 bitrate=N/A speed=18.6x    frame=30466 fps=447 q=-0.0 size=N/A time=00:21:10.68 bitrate=N/A speed=18.6x    frame=30725 fps=448 q=-0.0 size=N/A time=00:21:21.48 bitrate=N/A speed=18.7x    frame=30979 fps=448 q=-0.0 size=N/A time=00:21:32.08 bitrate=N/A speed=18.7x    frame=31238 fps=448 q=-0.0 size=N/A time=00:21:42.88 bitrate=N/A speed=18.7x    frame=31499 fps=449 q=-0.0 size=N/A time=00:21:53.77 bitrate=N/A speed=18.7x    frame=31756 fps=449 q=-0.0 size=N/A time=00:22:04.48 bitrate=N/A speed=18.7x    frame=32039 fps=450 q=-0.0 size=N/A time=00:22:16.29 bitrate=N/A speed=18.8x    frame=32299 fps=450 q=-0.0 size=N/A time=00:22:27.13 bitrate=N/A speed=18.8x    frame=32568 fps=451 q=-0.0 size=N/A time=00:22:38.35 bitrate=N/A speed=18.8x    frame=32770 fps=450 q=-0.0 size=N/A time=00:22:46.78 bitrate=N/A speed=18.8x    frame=32989 fps=450 q=-0.0 size=N/A time=00:22:55.91 bitrate=N/A speed=18.8x    frame=33189 fps=450 q=-0.0 size=N/A time=00:23:04.25 bitrate=N/A speed=18.8x    frame=33376 fps=449 q=-0.0 size=N/A time=00:23:12.05 bitrate=N/A speed=18.7x    frame=33506 fps=448 q=-0.0 size=N/A time=00:23:17.47 bitrate=N/A speed=18.7x    frame=33719 fps=447 q=-0.0 size=N/A time=00:23:26.36 bitrate=N/A speed=18.7x    frame=33911 fps=447 q=-0.0 size=N/A time=00:23:34.37 bitrate=N/A speed=18.6x    frame=34062 fps=446 q=-0.0 size=N/A time=00:23:40.66 bitrate=N/A speed=18.6x    frame=34173 fps=444 q=-0.0 size=N/A time=00:23:45.29 bitrate=N/A speed=18.5x    frame=34324 fps=443 q=-0.0 size=N/A time=00:23:51.59 bitrate=N/A speed=18.5x    frame=34518 fps=443 q=-0.0 size=N/A time=00:23:59.68 bitrate=N/A speed=18.5x    [Parsed_psnr_10 @ 000002738f7d6d80] PSNR y:48.251773 u:50.773117 v:50.343396 average:48.892194 min:37.602747 max:inf
[out#0/null @ 000002738cea4780] video:14902KiB audio:271244KiB subtitle:0KiB other streams:0KiB global headers:0KiB muxing overhead: unknown
frame=34681 fps=443 q=-0.0 Lsize=N/A time=00:24:06.48 bitrate=N/A speed=18.5x    
